<?xml version="1.0" encoding="UTF-8"?>
<svg version="1.1" xmlns="http://www.w3.org/2000/svg" width="1024" height="1024">
<path d="M0 0 C337.92 0 675.84 0 1024 0 C1024 337.92 1024 675.84 1024 1024 C686.08 1024 348.16 1024 0 1024 C0 686.08 0 348.16 0 0 Z " fill="#251F2F" transform="translate(0,0)"/>
<path d="M0 0 C1.25336151 -0.00163147 1.25336151 -0.00163147 2.53204346 -0.0032959 C51.02259832 0.00384715 99.99316457 10.69944378 144.02148438 31.18457031 C146.1475561 32.16900478 148.28307588 33.12952362 150.421875 34.0859375 C173.13009958 44.3493481 194.40242807 58.08312461 214.1875 73.1875 C214.99703125 73.80496094 215.8065625 74.42242187 216.640625 75.05859375 C222.49264816 79.631637 227.95552866 84.55769619 233.390625 89.609375 C235.57919635 91.62677317 237.79134319 93.57825193 240.0625 95.5 C249.05063473 103.30102259 257.64435249 111.98257917 265.1875 121.1875 C265.79247314 121.91380615 265.79247314 121.91380615 266.40966797 122.65478516 C279.0048774 137.81310397 290.62535772 153.93441409 300.1875 171.1875 C300.63802734 171.99960937 301.08855469 172.81171875 301.55273438 173.6484375 C327.47646718 220.85801233 342.99954674 273.17275029 344.1875 327.1875 C344.21328125 327.99268066 344.2390625 328.79786133 344.265625 329.62744141 C345.94535292 386.43373994 333.33424381 443.64409414 307.1875 494.1875 C306.69975098 495.15381348 306.69975098 495.15381348 306.20214844 496.13964844 C300.59985576 507.14625401 293.89101485 517.41644485 287.0625 527.6875 C286.63529663 528.3319809 286.20809326 528.97646179 285.76794434 529.64047241 C280.5756588 537.4521806 275.21352398 544.98515201 269.1875 552.1875 C268.64834961 552.83702637 268.10919922 553.48655273 267.55371094 554.15576172 C266.08946709 555.90620295 264.61184404 557.64373294 263.125 559.375 C262.61042236 559.97521973 262.09584473 560.57543945 261.56567383 561.19384766 C258.42375707 564.83112726 255.19592904 568.31077491 251.73046875 571.64453125 C250.1045203 573.2704797 248.65824922 574.98287814 247.1875 576.75 C238.36422586 586.96433087 227.75519087 595.85241988 217.1875 604.1875 C216.16914062 605.0125 215.15078125 605.8375 214.1015625 606.6875 C171.48215696 641.03879152 121.86976551 663.06236404 68.375 674.0625 C67.66706299 674.20811371 66.95912598 674.35372742 66.22973633 674.50375366 C17.68281567 684.39092441 -33.73915711 682.78662984 -81.8125 671.1875 C-82.94977539 670.91341309 -84.08705078 670.63932617 -85.25878906 670.35693359 C-146.04576589 655.26914224 -200.27900592 621.91326524 -244.32641602 577.85888672 C-245.87173066 576.3157647 -247.42490446 574.78085694 -248.97851562 573.24609375 C-254.62050821 567.63535285 -259.89000455 561.89511572 -264.84838867 555.65576172 C-266.86735201 553.11856851 -268.95564648 550.65192352 -271.0625 548.1875 C-291.6379928 522.98789819 -307.97445823 493.39760989 -319.8125 463.1875 C-320.10431152 462.46272461 -320.39612305 461.73794922 -320.69677734 460.99121094 C-328.47011046 441.6206012 -333.93761101 421.3276973 -337.6875 400.8125 C-337.87844238 399.78261963 -338.06938477 398.75273926 -338.26611328 397.69165039 C-341.46540349 378.96434554 -342.20154214 360.02444815 -342.125 341.0625 C-342.12218018 340.04125031 -342.11936035 339.02000061 -342.11645508 337.96780396 C-341.90791401 287.4020055 -331.4076886 238.55422242 -308.8125 193.1875 C-308.09054443 191.69742432 -308.09054443 191.69742432 -307.35400391 190.17724609 C-296.58598404 167.98870597 -283.23034499 147.42945614 -267.8125 128.1875 C-266.18278347 125.96204676 -264.56453944 123.73034631 -262.96875 121.48046875 C-262.39640625 120.84044922 -262.39640625 120.84044922 -261.8125 120.1875 C-261.1525 120.1875 -260.4925 120.1875 -259.8125 120.1875 C-259.58433594 119.64222656 -259.35617187 119.09695313 -259.12109375 118.53515625 C-257.43677654 115.5134409 -255.22586198 113.13141875 -252.875 110.625 C-252.38990967 110.10268799 -251.90481934 109.58037598 -251.4050293 109.04223633 C-243.90993808 101.02274247 -236.19625085 93.28144303 -227.8125 86.1875 C-226.91660156 85.40246094 -226.02070313 84.61742187 -225.09765625 83.80859375 C-209.50126459 70.22431356 -192.61623329 58.67482129 -174.8125 48.1875 C-174.06178223 47.7445459 -173.31106445 47.3015918 -172.53759766 46.84521484 C-167.36619565 43.82227313 -162.1206613 40.96260336 -156.8125 38.1875 C-155.93271484 37.72520996 -155.05292969 37.26291992 -154.14648438 36.78662109 C-130.59062637 24.56385694 -105.21701942 15.0136146 -79.17675781 9.70239258 C-76.42840193 9.10385039 -73.7150185 8.40074917 -70.9921875 7.6953125 C-60.73795647 5.1053598 -50.26965757 3.69939846 -39.8125 2.1875 C-38.9987793 2.06455566 -38.18505859 1.94161133 -37.34667969 1.81494141 C-24.94400696 -0.00227017 -12.50795938 0.00876788 0 0 Z " fill="#2A2435" transform="translate(510.8125,172.8125)"/>
<path d="M0 0 C7.61929093 5.29083562 12.48844139 11.56642868 14.625 20.66015625 C15.82215908 29.32708921 14.37598657 38.16013955 9.25 45.375 C4.7508383 50.73380302 0.52721855 54.38911258 -6 57 C-6.33 75.81 -6.66 94.62 -7 114 C-1.72 114.33 3.56 114.66 9 115 C12.30002685 115.36204891 15.53934874 115.74238956 18.8125 116.25 C19.64668457 116.37930908 20.48086914 116.50861816 21.34033203 116.6418457 C49.55757168 121.26148228 77.3369114 131.91357857 101 148 C101.89976562 148.56589844 102.79953125 149.13179687 103.7265625 149.71484375 C125.41583166 163.54102207 144.47008974 181.8075694 159 203 C159.47663086 203.68562012 159.95326172 204.37124023 160.44433594 205.07763672 C168.57843458 216.85814963 175.7089572 229.27293275 180 243 C181.03898437 242.99097656 182.07796875 242.98195313 183.1484375 242.97265625 C192.48427896 243.0903208 199.14044619 244.01915742 206 251 C213.41418701 259.84066955 213.30861697 269.95733214 213.30078125 280.9921875 C213.3046774 282.34685393 213.30901393 283.70151916 213.31376648 285.05618286 C213.32119381 287.88531466 213.32096311 290.71432159 213.31567383 293.54345703 C213.30988629 297.1431033 213.32680939 300.74223383 213.3500185 304.34179497 C213.36485438 307.13704341 213.36561423 309.93217047 213.36250877 312.72745132 C213.36326179 314.69144209 213.37705289 316.65541422 213.39118958 318.61935425 C213.33745328 329.09875748 212.17031333 338.87483531 204.3984375 346.58984375 C199.04932846 351.40875476 194.16054032 353.91747726 187 355 C186.73896484 355.825 186.47792969 356.65 186.20898438 357.5 C176.63297466 387.55290615 176.63297466 387.55290615 169 401 C168.36876946 402.17714199 167.73988023 403.35554234 167.11328125 404.53515625 C159.71014518 418.24627872 150.32241713 430.29618296 139.49414062 441.45458984 C138.03707848 442.96164922 136.60375311 444.48857673 135.171875 446.01953125 C106.28126302 476.43122501 64.22285677 497.525563 23 504 C21.49010498 504.2616394 21.49010498 504.2616394 19.94970703 504.52856445 C9.10344216 506.2238111 -1.63772689 506.33865902 -12.59570312 506.31567383 C-15.73082478 506.31251929 -18.86499453 506.3360379 -22 506.36132812 C-38.88046969 506.41544552 -54.77770968 504.42149546 -71.125 500.1875 C-72.64444214 499.79739746 -72.64444214 499.79739746 -74.19458008 499.39941406 C-126.20197722 485.74165458 -172.26878218 451.76812853 -199.62133789 405.34082031 C-220 370.00298129 -220 370.00298129 -220 354 C-220.56847656 353.97421875 -221.13695312 353.9484375 -221.72265625 353.921875 C-229.40698489 353.3574168 -234.36853809 350.94844143 -239.6875 345.4375 C-247.01493999 336.31874241 -247.60827992 326.3731232 -247.53125 315.05859375 C-247.53395305 313.64095291 -247.53784218 312.2233139 -247.54284668 310.80567932 C-247.5487018 307.85309982 -247.54030837 304.9010085 -247.52148438 301.94848633 C-247.49867518 298.19067065 -247.51185442 294.43399693 -247.53577423 290.6762228 C-247.55032354 287.75482287 -247.54558526 284.83368763 -247.53526306 281.91227913 C-247.53262196 280.52779055 -247.53577182 279.1432768 -247.54518127 277.75881767 C-247.5966306 268.06688515 -246.70037052 259.63704228 -240.75 251.6875 C-235.26277555 246.3249852 -231.53448618 243.76734255 -223.72583008 243.66162109 C-220.47707289 243.6993932 -217.2442792 243.82282456 -214 244 C-213.67 242.865625 -213.34 241.73125 -213 240.5625 C-208.81302822 228.09987039 -202.64809788 216.65672461 -195 206 C-194.20646272 204.84764007 -193.41487481 203.69393591 -192.625 202.5390625 C-187.92239964 195.72645159 -182.9736478 189.487401 -177.296875 183.44921875 C-175.30891246 181.32940156 -173.42865364 179.1635547 -171.5625 176.9375 C-148.18572497 150.32891276 -113.31081208 132.51732229 -80 122 C-79.34080566 121.79004395 -78.68161133 121.58008789 -78.00244141 121.36376953 C-66.89422032 117.9043104 -55.51405037 116.41558622 -44 115 C-42.85289551 114.84990479 -42.85289551 114.84990479 -41.68261719 114.69677734 C-36.33935421 114.03552828 -31.46914678 114 -26 114 C-26 95.19 -26 76.38 -26 57 C-28.97 56.01 -28.97 56.01 -32 55 C-39.00355942 51.06049783 -43.93272658 45.42603039 -47 38 C-49.30136114 28.50283362 -48.94919238 19.4843298 -44 11 C-43.443125 9.948125 -42.88625 8.89625 -42.3125 7.8125 C-32.04653504 -4.67313306 -14.01680384 -8.25615401 0 0 Z " fill="#2A2435" transform="translate(529,272)"/>
<path d="M0 0 C1.25336151 -0.00163147 1.25336151 -0.00163147 2.53204346 -0.0032959 C51.02259832 0.00384715 99.99316457 10.69944378 144.02148438 31.18457031 C146.1475561 32.16900478 148.28307588 33.12952362 150.421875 34.0859375 C173.13009958 44.3493481 194.40242807 58.08312461 214.1875 73.1875 C214.99703125 73.80496094 215.8065625 74.42242187 216.640625 75.05859375 C222.49264816 79.631637 227.95552866 84.55769619 233.390625 89.609375 C235.57919635 91.62677317 237.79134319 93.57825193 240.0625 95.5 C249.05063473 103.30102259 257.64435249 111.98257917 265.1875 121.1875 C265.79247314 121.91380615 265.79247314 121.91380615 266.40966797 122.65478516 C279.0048774 137.81310397 290.62535772 153.93441409 300.1875 171.1875 C300.63802734 171.99960937 301.08855469 172.81171875 301.55273438 173.6484375 C327.47646718 220.85801233 342.99954674 273.17275029 344.1875 327.1875 C344.21328125 327.99268066 344.2390625 328.79786133 344.265625 329.62744141 C345.94535292 386.43373994 333.33424381 443.64409414 307.1875 494.1875 C306.69975098 495.15381348 306.69975098 495.15381348 306.20214844 496.13964844 C300.59985576 507.14625401 293.89101485 517.41644485 287.0625 527.6875 C286.63529663 528.3319809 286.20809326 528.97646179 285.76794434 529.64047241 C280.5756588 537.4521806 275.21352398 544.98515201 269.1875 552.1875 C268.64834961 552.83702637 268.10919922 553.48655273 267.55371094 554.15576172 C266.08946709 555.90620295 264.61184404 557.64373294 263.125 559.375 C262.61042236 559.97521973 262.09584473 560.57543945 261.56567383 561.19384766 C258.42375707 564.83112726 255.19592904 568.31077491 251.73046875 571.64453125 C250.1045203 573.2704797 248.65824922 574.98287814 247.1875 576.75 C238.36422586 586.96433087 227.75519087 595.85241988 217.1875 604.1875 C216.16914062 605.0125 215.15078125 605.8375 214.1015625 606.6875 C171.48215696 641.03879152 121.86976551 663.06236404 68.375 674.0625 C67.66706299 674.20811371 66.95912598 674.35372742 66.22973633 674.50375366 C17.68281567 684.39092441 -33.73915711 682.78662984 -81.8125 671.1875 C-82.94977539 670.91341309 -84.08705078 670.63932617 -85.25878906 670.35693359 C-146.04576589 655.26914224 -200.27900592 621.91326524 -244.32641602 577.85888672 C-245.87173066 576.3157647 -247.42490446 574.78085694 -248.97851562 573.24609375 C-254.62050821 567.63535285 -259.89000455 561.89511572 -264.84838867 555.65576172 C-266.86735201 553.11856851 -268.95564648 550.65192352 -271.0625 548.1875 C-291.6379928 522.98789819 -307.97445823 493.39760989 -319.8125 463.1875 C-320.10431152 462.46272461 -320.39612305 461.73794922 -320.69677734 460.99121094 C-328.47011046 441.6206012 -333.93761101 421.3276973 -337.6875 400.8125 C-337.87844238 399.78261963 -338.06938477 398.75273926 -338.26611328 397.69165039 C-341.46540349 378.96434554 -342.20154214 360.02444815 -342.125 341.0625 C-342.12218018 340.04125031 -342.11936035 339.02000061 -342.11645508 337.96780396 C-341.90791401 287.4020055 -331.4076886 238.55422242 -308.8125 193.1875 C-308.09054443 191.69742432 -308.09054443 191.69742432 -307.35400391 190.17724609 C-296.58598404 167.98870597 -283.23034499 147.42945614 -267.8125 128.1875 C-266.18278347 125.96204676 -264.56453944 123.73034631 -262.96875 121.48046875 C-262.39640625 120.84044922 -262.39640625 120.84044922 -261.8125 120.1875 C-261.1525 120.1875 -260.4925 120.1875 -259.8125 120.1875 C-259.58433594 119.64222656 -259.35617187 119.09695313 -259.12109375 118.53515625 C-257.43677654 115.5134409 -255.22586198 113.13141875 -252.875 110.625 C-252.38990967 110.10268799 -251.90481934 109.58037598 -251.4050293 109.04223633 C-243.90993808 101.02274247 -236.19625085 93.28144303 -227.8125 86.1875 C-226.91660156 85.40246094 -226.02070313 84.61742187 -225.09765625 83.80859375 C-209.50126459 70.22431356 -192.61623329 58.67482129 -174.8125 48.1875 C-174.06178223 47.7445459 -173.31106445 47.3015918 -172.53759766 46.84521484 C-167.36619565 43.82227313 -162.1206613 40.96260336 -156.8125 38.1875 C-155.93271484 37.72520996 -155.05292969 37.26291992 -154.14648438 36.78662109 C-130.59062637 24.56385694 -105.21701942 15.0136146 -79.17675781 9.70239258 C-76.42840193 9.10385039 -73.7150185 8.40074917 -70.9921875 7.6953125 C-60.73795647 5.1053598 -50.26965757 3.69939846 -39.8125 2.1875 C-38.9987793 2.06455566 -38.18505859 1.94161133 -37.34667969 1.81494141 C-24.94400696 -0.00227017 -12.50795938 0.00876788 0 0 Z M-211.8125 106.1875 C-213.10994141 107.31478516 -213.10994141 107.31478516 -214.43359375 108.46484375 C-223.79284334 116.74590779 -232.85963685 125.5351661 -240.8125 135.1875 C-241.4297998 135.93410889 -241.4297998 135.93410889 -242.05957031 136.69580078 C-276.61423393 178.66547149 -300.93371578 226.89604932 -311.125 280.5 C-311.48911987 282.41087402 -311.48911987 282.41087402 -311.8605957 284.36035156 C-315.01431481 301.79449456 -316.1645893 318.95473578 -316.12817383 336.66479492 C-316.12502041 339.85435447 -316.14855985 343.04297633 -316.17382812 346.23242188 C-316.21871893 360.75547062 -315.00208372 374.83567201 -312.8125 389.1875 C-312.70545746 389.89842804 -312.59841492 390.60935608 -312.48812866 391.34182739 C-311.89719286 395.20078843 -311.22689791 399.03949935 -310.5 402.875 C-310.18035278 404.5619397 -310.18035278 404.5619397 -309.85424805 406.28295898 C-301.46544339 449.1074576 -282.30297787 492.25622996 -255.15136719 526.48388672 C-253.08452706 529.1137938 -251.11151536 531.80892469 -249.125 534.5 C-242.75553134 543.08151733 -242.75553134 543.08151733 -235.8125 551.1875 C-235.1525 551.1875 -234.4925 551.1875 -233.8125 551.1875 C-233.60109375 551.73535156 -233.3896875 552.28320312 -233.171875 552.84765625 C-231.32847296 556.0206385 -228.77483723 558.21270712 -226.0625 560.625 C-224.87969193 561.69343901 -223.69741831 562.76246993 -222.515625 563.83203125 C-221.90396484 564.3832666 -221.29230469 564.93450195 -220.66210938 565.50244141 C-218.85246374 567.15109164 -217.07077298 568.82472787 -215.296875 570.51171875 C-207.82305425 577.60828551 -200.13522463 584.11090236 -191.8125 590.1875 C-191.25062988 590.6009668 -190.68875977 591.01443359 -190.10986328 591.44042969 C-181.56521723 597.71212758 -172.79574182 603.56481716 -163.8125 609.1875 C-162.97460938 609.71988281 -162.13671875 610.25226562 -161.2734375 610.80078125 C-153.73622904 615.47687546 -145.82143961 619.39737733 -137.8125 623.1875 C-136.6049707 623.76008545 -136.6049707 623.76008545 -135.37304688 624.34423828 C-112.12461121 635.22354269 -87.32733152 643.84154843 -62.10546875 648.74072266 C-59.94973127 649.16076094 -57.80336511 649.61242352 -55.65625 650.07421875 C-36.98852202 653.90110299 -18.1278513 654.56884749 0.875 654.5 C1.92543488 654.49817719 2.97586975 654.49635437 4.05813599 654.49447632 C19.96328951 654.44810649 35.48392217 653.91537698 51.1875 651.1875 C52.17443848 651.02652832 53.16137695 650.86555664 54.17822266 650.69970703 C114.59011587 640.66479705 171.66525135 613.23990128 216.1875 571.1875 C217.95405015 569.59938926 219.72470829 568.01583281 221.5 566.4375 C227.49988874 561.04143393 233.07458371 555.44166346 238.328125 549.31640625 C239.58083014 547.88211149 240.86318316 546.47324438 242.171875 545.08984375 C254.77334827 531.68353186 264.71036415 515.88616171 274.1875 500.1875 C274.78208008 499.20330078 274.78208008 499.20330078 275.38867188 498.19921875 C317.91127838 427.00885846 328.87742021 340.0271857 308.96826172 259.87597656 C300.29122359 226.42390949 286.1091057 193.51708377 266.1875 165.1875 C265.39841278 164.0468921 264.60935144 162.9062663 263.8203125 161.765625 C259.03701382 154.90884294 254.01396354 148.38675418 248.5859375 142.0234375 C247.0988795 140.26512463 245.63958104 138.48240907 244.2265625 136.6640625 C233.62732748 123.04844439 220.84066382 110.70811974 207.1875 100.1875 C206.06353878 99.26650917 204.94265246 98.34175801 203.82421875 97.4140625 C185.33302242 82.156964 164.8358673 69.55807339 143.24316406 59.18945312 C141.1747722 58.18129633 139.13048618 57.13368718 137.0859375 56.078125 C104.62049457 39.60971974 67.69922636 30.84191407 31.59545898 27.42163086 C30.05112863 27.27147241 28.50847666 27.10208967 26.96899414 26.90844727 C18.34641782 25.87028062 9.67120378 25.986715 1 26 C0.1520285 26.00126892 -0.69594299 26.00253784 -1.5696106 26.00384521 C-79.57957283 26.22621886 -153.09485423 55.09799918 -211.8125 106.1875 Z " fill="#FDCA1C" transform="translate(510.8125,172.8125)"/>
<path d="M0 0 C7.61929093 5.29083562 12.48844139 11.56642868 14.625 20.66015625 C15.82215908 29.32708921 14.37598657 38.16013955 9.25 45.375 C4.7508383 50.73380302 0.52721855 54.38911258 -6 57 C-6.33 75.81 -6.66 94.62 -7 114 C-1.72 114.33 3.56 114.66 9 115 C12.30002685 115.36204891 15.53934874 115.74238956 18.8125 116.25 C19.64668457 116.37930908 20.48086914 116.50861816 21.34033203 116.6418457 C49.55757168 121.26148228 77.3369114 131.91357857 101 148 C101.89976562 148.56589844 102.79953125 149.13179687 103.7265625 149.71484375 C125.41583166 163.54102207 144.47008974 181.8075694 159 203 C159.47663086 203.68562012 159.95326172 204.37124023 160.44433594 205.07763672 C168.57843458 216.85814963 175.7089572 229.27293275 180 243 C181.03898437 242.99097656 182.07796875 242.98195313 183.1484375 242.97265625 C192.48427896 243.0903208 199.14044619 244.01915742 206 251 C213.41418701 259.84066955 213.30861697 269.95733214 213.30078125 280.9921875 C213.3046774 282.34685393 213.30901393 283.70151916 213.31376648 285.05618286 C213.32119381 287.88531466 213.32096311 290.71432159 213.31567383 293.54345703 C213.30988629 297.1431033 213.32680939 300.74223383 213.3500185 304.34179497 C213.36485438 307.13704341 213.36561423 309.93217047 213.36250877 312.72745132 C213.36326179 314.69144209 213.37705289 316.65541422 213.39118958 318.61935425 C213.33745328 329.09875748 212.17031333 338.87483531 204.3984375 346.58984375 C199.04932846 351.40875476 194.16054032 353.91747726 187 355 C186.73896484 355.825 186.47792969 356.65 186.20898438 357.5 C176.63297466 387.55290615 176.63297466 387.55290615 169 401 C168.36876946 402.17714199 167.73988023 403.35554234 167.11328125 404.53515625 C159.71014518 418.24627872 150.32241713 430.29618296 139.49414062 441.45458984 C138.03707848 442.96164922 136.60375311 444.48857673 135.171875 446.01953125 C106.28126302 476.43122501 64.22285677 497.525563 23 504 C21.49010498 504.2616394 21.49010498 504.2616394 19.94970703 504.52856445 C9.10344216 506.2238111 -1.63772689 506.33865902 -12.59570312 506.31567383 C-15.73082478 506.31251929 -18.86499453 506.3360379 -22 506.36132812 C-38.88046969 506.41544552 -54.77770968 504.42149546 -71.125 500.1875 C-72.64444214 499.79739746 -72.64444214 499.79739746 -74.19458008 499.39941406 C-126.20197722 485.74165458 -172.26878218 451.76812853 -199.62133789 405.34082031 C-220 370.00298129 -220 370.00298129 -220 354 C-220.56847656 353.97421875 -221.13695312 353.9484375 -221.72265625 353.921875 C-229.40698489 353.3574168 -234.36853809 350.94844143 -239.6875 345.4375 C-247.01493999 336.31874241 -247.60827992 326.3731232 -247.53125 315.05859375 C-247.53395305 313.64095291 -247.53784218 312.2233139 -247.54284668 310.80567932 C-247.5487018 307.85309982 -247.54030837 304.9010085 -247.52148438 301.94848633 C-247.49867518 298.19067065 -247.51185442 294.43399693 -247.53577423 290.6762228 C-247.55032354 287.75482287 -247.54558526 284.83368763 -247.53526306 281.91227913 C-247.53262196 280.52779055 -247.53577182 279.1432768 -247.54518127 277.75881767 C-247.5966306 268.06688515 -246.70037052 259.63704228 -240.75 251.6875 C-235.26277555 246.3249852 -231.53448618 243.76734255 -223.72583008 243.66162109 C-220.47707289 243.6993932 -217.2442792 243.82282456 -214 244 C-213.67 242.865625 -213.34 241.73125 -213 240.5625 C-208.81302822 228.09987039 -202.64809788 216.65672461 -195 206 C-194.20646272 204.84764007 -193.41487481 203.69393591 -192.625 202.5390625 C-187.92239964 195.72645159 -182.9736478 189.487401 -177.296875 183.44921875 C-175.30891246 181.32940156 -173.42865364 179.1635547 -171.5625 176.9375 C-148.18572497 150.32891276 -113.31081208 132.51732229 -80 122 C-79.34080566 121.79004395 -78.68161133 121.58008789 -78.00244141 121.36376953 C-66.89422032 117.9043104 -55.51405037 116.41558622 -44 115 C-42.85289551 114.84990479 -42.85289551 114.84990479 -41.68261719 114.69677734 C-36.33935421 114.03552828 -31.46914678 114 -26 114 C-26 95.19 -26 76.38 -26 57 C-28.97 56.01 -28.97 56.01 -32 55 C-39.00355942 51.06049783 -43.93272658 45.42603039 -47 38 C-49.30136114 28.50283362 -48.94919238 19.4843298 -44 11 C-43.443125 9.948125 -42.88625 8.89625 -42.3125 7.8125 C-32.04653504 -4.67313306 -14.01680384 -8.25615401 0 0 Z M-61 142 C-61.86463867 142.18191895 -62.72927734 142.36383789 -63.62011719 142.55126953 C-89.83831723 148.2881029 -115.07520735 160.23240915 -136 177 C-137.01707031 177.80695313 -138.03414062 178.61390625 -139.08203125 179.4453125 C-141.74989761 181.59858357 -144.38190776 183.786637 -147 186 C-147.72832031 186.60457031 -148.45664062 187.20914063 -149.20703125 187.83203125 C-153.96623055 191.86324596 -158.02998807 196.19781249 -162 201 C-162.42796875 201.49967285 -162.8559375 201.9993457 -163.296875 202.51416016 C-190.80981202 234.66612605 -203.86008512 275.87940582 -202 318 C-201.9695459 318.6914209 -201.9390918 319.3828418 -201.90771484 320.09521484 C-199.89177332 358.15790645 -183.73317449 394.99541794 -157.9765625 422.83203125 C-156 425 -156 425 -153.625 428.0625 C-149.55323892 432.61899454 -144.78732604 436.22278751 -140 440 C-139.05382812 440.78503906 -138.10765625 441.57007813 -137.1328125 442.37890625 C-127.48976833 450.18100563 -116.87663826 456.089522 -106 462 C-104.87207031 462.62132812 -103.74414062 463.24265625 -102.58203125 463.8828125 C-87.15720027 472.01010276 -69.74381507 476.72425328 -52.75 480.1875 C-51.93426514 480.35459473 -51.11853027 480.52168945 -50.27807617 480.69384766 C-39.03333742 482.89807524 -27.92341852 483.20567433 -16.5 483.1875 C-15.7416687 483.18656342 -14.9833374 483.18562683 -14.20202637 483.18466187 C-3.03310059 483.15473931 7.98679081 483.0211136 19 481 C19.83289551 480.84934082 20.66579102 480.69868164 21.52392578 480.54345703 C41.50428868 476.78019346 60.19483498 469.77538472 78 460 C78.92256592 459.49629883 78.92256592 459.49629883 79.86376953 458.98242188 C98.20803537 448.82489301 115.70781957 435.28133105 129 419 C129.62132812 418.278125 130.24265625 417.55625 130.8828125 416.8125 C136.82846454 409.72435012 141.50464223 402.05526537 146 394 C146.34562988 393.38415039 146.69125977 392.76830078 147.04736328 392.13378906 C168.00355717 354.19775623 173.97847055 307.17506821 162.65673828 265.2578125 C149.66195553 220.58281218 118.81936466 183.46464318 78.06274414 161.06005859 C35.38498323 138.54673112 -13.88098702 131.99933052 -61 142 Z " fill="#FDCA1D" transform="translate(529,272)"/>
<path d="M0 0 C9.645083 8.1761988 16.29833606 17.5172977 17.4609375 30.4140625 C17.5950801 43.80149382 15.33784621 55.38249993 6.125 65.6875 C-3.229632 74.75913473 -14.50626021 79.55342147 -27.59375 79.72265625 C-38.29467761 79.09228551 -47.85387824 75.86330448 -55.875 68.6875 C-57.174375 67.5428125 -57.174375 67.5428125 -58.5 66.375 C-68.10123054 55.51044965 -71.52574199 45.07612855 -70.875 30.6875 C-70.01456111 19.89892005 -64.88727079 10.09330669 -57.0625 2.6875 C-40.44471345 -11.05558599 -17.66994668 -12.99173146 0 0 Z " fill="#FDC91D" transform="translate(466.875,507.3125)"/>
<path d="M0 0 C10.02928926 6.95830534 16.33294654 16.24369093 19.3125 28.06640625 C21.21832889 40.66393523 19.52438348 52.10956795 12.578125 62.8984375 C4.4076401 73.73434712 -6.27190876 79.31052029 -19.5078125 81.3984375 C-31.70182135 82.4914579 -42.13759614 79.24108052 -51.75 71.828125 C-61.26213414 63.68737216 -67.09418318 54.24199555 -68.109375 41.5859375 C-68.73713873 29.72817809 -66.17572274 20.30697307 -59.296875 10.6484375 C-58.1521875 9.0396875 -58.1521875 9.0396875 -56.984375 7.3984375 C-41.61917516 -8.32409257 -18.77542155 -11.0481222 0 0 Z " fill="#FDC91D" transform="translate(609.296875,505.3515625)"/>
<path d="M0 0 C1.9235242 1.45437196 3.645568 3.06337148 5.4140625 4.703125 C25.26796585 22.33770985 48.12443824 32.30940618 75 31 C79.37900476 30.53515993 83.67576805 29.82692377 88 29 C88.96550781 28.82855469 89.93101562 28.65710938 90.92578125 28.48046875 C107.54315913 24.99509179 123.53374505 14.85699318 135.2421875 2.70703125 C138 0 138 0 141.5 -1.1875 C145.18165722 -0.99026836 147.20968722 -0.3197181 149.88671875 2.28515625 C151.69673979 5.07322375 151.82243245 7.41522453 151.55859375 10.68359375 C148.88633204 21.76507061 134.59154083 30.54901412 125.5 36.3125 C101.80023407 50.20840592 75.97991077 54.83474592 49 50 C48.15695312 49.86722656 47.31390625 49.73445312 46.4453125 49.59765625 C24.94077637 45.89605577 2.48259975 32.7791197 -11.5 16 C-13.33943312 12.32113376 -13.51766925 10.06740127 -13 6 C-11.72833274 3.13874867 -10.67507529 1.51212609 -8.1875 -0.375 C-4.91585275 -1.30975636 -3.27082119 -1.06930693 0 0 Z " fill="#FCCB1C" transform="translate(443,635)"/>
<path d="M0 0 C6.4092404 4.05805521 9.87605569 8.85767003 11.8125 16.15234375 C12.65046512 22.23631966 11.18833515 27.66482238 8.6875 33.1875 C5.0504431 37.09733616 1.14639348 39.85367389 -3.8125 41.875 C-6.48828125 41.91015625 -6.48828125 41.91015625 -9.1875 41.75 C-12.12535425 41.88203839 -14.02444294 42.17426818 -16.2578125 44.16015625 C-19.63494225 47.97974418 -22.43817613 52.21363143 -25.23144531 56.46923828 C-26.8481036 58.92917509 -28.50675073 61.355381 -30.1796875 63.77734375 C-32.40430161 67.00218682 -34.61695367 70.23450574 -36.81640625 73.4765625 C-39.3449292 77.19615495 -41.89422508 80.89650925 -44.5 84.5625 C-45.10199219 85.41199219 -45.70398438 86.26148438 -46.32421875 87.13671875 C-46.81535156 87.71035156 -47.30648437 88.28398437 -47.8125 88.875 C-48.4725 88.875 -49.1325 88.875 -49.8125 88.875 C-49.8125 88.215 -49.8125 87.555 -49.8125 86.875 C-50.67101562 86.49214844 -50.67101562 86.49214844 -51.546875 86.1015625 C-54.05423733 84.74412841 -55.9455456 83.15525896 -58.0625 81.25 C-59.12210938 80.30253906 -59.12210938 80.30253906 -60.203125 79.3359375 C-60.73421875 78.85382813 -61.2653125 78.37171875 -61.8125 77.875 C-60.76451892 71.75938438 -56.28667024 66.85602209 -52.8125 61.875 C-52.42884277 61.32489258 -52.04518555 60.77478516 -51.64990234 60.20800781 C-50.45980022 58.50956562 -49.26280741 56.81624395 -48.0625 55.125 C-47.65684814 54.55152832 -47.25119629 53.97805664 -46.83325195 53.38720703 C-44.45617333 50.06158042 -41.99697507 46.8283875 -39.4375 43.640625 C-38.87643555 42.9300293 -38.31537109 42.21943359 -37.73730469 41.48730469 C-36.64070327 40.10424412 -35.52722318 38.73436114 -34.39550781 37.37988281 C-32.97576909 35.57687913 -31.76471324 33.96370705 -30.8125 31.875 C-31.33184499 28.63896366 -31.33184499 28.63896366 -32.8125 25.875 C-33.30979622 18.16690855 -32.6932253 11.80403162 -27.75 5.625 C-20.28189069 -2.21342878 -9.89196865 -5.06901876 0 0 Z " fill="#FCCB1D" transform="translate(722.8125,346.125)"/>
<path d="M0 0 C5.89714581 4.67278602 8.00503062 9.5457151 8.96875 16.921875 C9.00108252 20.10662846 8.43342492 22.51426279 7.5625 25.5625 C6.80458997 29.04492321 6.65912164 30.40046056 8.44140625 33.53515625 C10.41623287 35.87739248 12.46996544 38.1194842 14.56005859 40.35839844 C17.28095117 43.46034515 19.58576058 46.86505851 21.9375 50.25 C22.43942871 50.96679932 22.94135742 51.68359863 23.45849609 52.42211914 C28.41929462 59.53864484 33.23212254 66.75324819 38 74 C36.57646476 77.33136597 34.8664687 79.27664757 32.125 81.625 C31.44695312 82.21539062 30.76890625 82.80578125 30.0703125 83.4140625 C28.11333531 84.91318087 26.23951463 85.98569068 24 87 C23.29875 85.97261719 22.5975 84.94523437 21.875 83.88671875 C17.01988775 76.78926488 12.13558618 69.7270348 7.04296875 62.796875 C4.15614285 58.84473858 1.32544604 54.85295942 -1.50024414 50.85693359 C-2.65608339 49.23026639 -3.82772777 47.61486481 -5 46 C-5.65097656 45.04867187 -6.30195313 44.09734375 -6.97265625 43.1171875 C-8.81468728 40.79695026 -8.81468728 40.79695026 -11.48046875 40.46875 C-12.82044922 40.48421875 -12.82044922 40.48421875 -14.1875 40.5 C-20.13844487 40.18261627 -24.36640928 38.81483974 -29 35 C-33.68991949 29.54981988 -35.6286581 24.86195572 -36.3125 17.75 C-35.73486897 10.81842767 -33.24829831 5.78339365 -28.125 1.0625 C-19.48490894 -5.8113846 -9.23028829 -5.91814477 0 0 Z " fill="#FCCB1D" transform="translate(325,348)"/>
<path d="M0 0 C0.66 0.33 1.32 0.66 2 1 C-1.86193455 4.95437447 -5.73889922 8.83869933 -9.9375 12.4375 C-16.09460219 17.75499735 -21.83232616 22.97648281 -26 30 C-27.6396721 31.36639342 -29.30327614 32.70513179 -31 34 C-31.33 34.66 -31.66 35.32 -32 36 C-32.66 35.67 -33.32 35.34 -34 35 C-28.74784742 28.1138444 -23.05743697 21.86423871 -16.9375 15.75 C-16.2775 15.08935547 -15.6175 14.42871094 -14.9375 13.74804688 C-10.94134334 9.79541271 -6.82637536 6.02573617 -2.56860352 2.35644531 C-1.68971751 1.5964312 -0.82160272 0.82160272 0 0 Z " fill="#FADF17" transform="translate(284,258)"/>
<path d="M0 0 C3.63854976 2.73049982 6.40056273 5.53806009 9.1875 9.125 C15.37869719 16.84335917 22.22863001 23.8647079 30 30 C24.04958249 30 19.11636186 23.07931923 15 19 C12.59244312 16.57153057 10.22267126 14.11135227 7.875 11.625 C7.040896 10.75174072 7.040896 10.75174072 6.18994141 9.86083984 C3.30369872 6.74699528 1.2589767 4.14996023 0 0 Z " fill="#14103C" transform="translate(343,698)"/>
<path d="M0 0 C0.33 0 0.66 0 1 0 C1 1.65 1 3.3 1 5 C1.66 5 2.32 5 3 5 C3.66 9.29 4.32 13.58 5 18 C4.34 18 3.68 18 3 18 C2.67 18.66 2.34 19.32 2 20 C2 18.02 2 16.04 2 14 C1.67 14 1.34 14 1 14 C-0.20568053 9.32798795 -0.09382426 4.78503708 0 0 Z " fill="#241F35" transform="translate(169,555)"/>
<path d="M0 0 C0.66 0.33 1.32 0.66 2 1 C0.44877329 2.4909849 -1.11647668 3.96738912 -2.6875 5.4375 C-3.55761719 6.26121094 -4.42773438 7.08492187 -5.32421875 7.93359375 C-8.03946719 10.03047904 -9.63412623 10.66644494 -13 11 C-9.0299782 6.78185183 -4.69159716 3.38772897 0 0 Z " fill="#F5D917" transform="translate(634,713)"/>
<path d="M0 0 C0.33 0.66 0.66 1.32 1 2 C-1.64 5.63 -4.28 9.26 -7 13 C-7 10 -7 10 -5 7 C-4.87625 6.154375 -4.7525 5.30875 -4.625 4.4375 C-4 2 -4 2 -1.9375 0.6875 C-1.298125 0.460625 -0.65875 0.23375 0 0 Z " fill="#1D1839" transform="translate(774,687)"/>
<path d="M0 0 C0.33 0 0.66 0 1 0 C1.06058594 0.69867187 1.12117187 1.39734375 1.18359375 2.1171875 C1.26738281 3.02726563 1.35117187 3.93734375 1.4375 4.875 C1.55931641 6.23238281 1.55931641 6.23238281 1.68359375 7.6171875 C1.86989285 10.01110861 1.86989285 10.01110861 3 12 C2.72057545 13.67654729 2.39171753 15.34608154 2 17 C1.01 17 0.02 17 -1 17 C-0.67 11.39 -0.34 5.78 0 0 Z " fill="#332834" transform="translate(853,537)"/>
<path d="M0 0 C0.66 0.33 1.32 0.66 2 1 C0.625 3 0.625 3 -1 5 C-1.66 5 -2.32 5 -3 5 C-3.433125 5.928125 -3.433125 5.928125 -3.875 6.875 C-5.52703842 9.99551702 -6.62072216 10.87357405 -10 12 C-8.52278578 8.54798361 -6.56205999 6.35038064 -3.875 3.75 C-3.15054687 3.04359375 -2.42609375 2.3371875 -1.6796875 1.609375 C-1.12539063 1.07828125 -0.57109375 0.5471875 0 0 Z " fill="#EFD219" transform="translate(365,441)"/>
<path d="M0 0 C0 0.66 0 1.32 0 2 C-1.27875 2.2475 -2.5575 2.495 -3.875 2.75 C-7.26747318 3.51990586 -7.26747318 3.51990586 -9.5 6.125 C-9.665 6.74375 -9.83 7.3625 -10 8 C-11.32 7.67 -12.64 7.34 -14 7 C-10.12796679 3.59730415 -5.39103037 0 0 0 Z " fill="#F8DA18" transform="translate(505,269)"/>
<path d="M0 0 C-4.9221313 2.63365987 -9.57903298 4.64475824 -15 6 C-15 5.34 -15 4.68 -15 4 C-13.06767179 3.13419713 -11.12892806 2.28270059 -9.1875 1.4375 C-8.10855469 0.96183594 -7.02960938 0.48617188 -5.91796875 -0.00390625 C-3 -1 -3 -1 0 0 Z " fill="#F2D618" transform="translate(435,401)"/>
<path d="M0 0 C0 5.36373351 -2.59801074 9.95001278 -6 14 C-6.66 13.67 -7.32 13.34 -8 13 C-6.85605098 11.01974361 -5.70978896 9.04082322 -4.5625 7.0625 C-3.92441406 5.96035156 -3.28632813 4.85820312 -2.62890625 3.72265625 C-1 1 -1 1 0 0 Z " fill="#F6DE16" transform="translate(220,334)"/>
<path d="M0 0 C0.66 0.99 1.32 1.98 2 3 C1.2575 3.5775 0.515 4.155 -0.25 4.75 C-2.66087643 6.72253526 -4.84042701 8.76044282 -7 11 C-5.5140084 6.40693504 -3.14985318 3.56430755 0 0 Z " fill="#19153A" transform="translate(700,399)"/>
<path d="M0 0 C3.3 0.33 6.6 0.66 10 1 C9.67 1.99 9.34 2.98 9 4 C5.7 3.67 2.4 3.34 -1 3 C-0.67 2.01 -0.34 1.02 0 0 Z " fill="#3C3032" transform="translate(535,852)"/>
<path d="M0 0 C0 0.33 0 0.66 0 1 C-1.98 1 -3.96 1 -6 1 C-6 1.66 -6 2.32 -6 3 C-9.96 2.67 -13.92 2.34 -18 2 C-18 1.67 -18 1.34 -18 1 C-11.95170514 0.10395632 -6.1105424 -0.11269443 0 0 Z " fill="#100D3A" transform="translate(559,851)"/>
<path d="M0 0 C4.00508702 2.9752075 7.0875615 5.97398207 10 10 C9.67 10.99 9.34 11.98 9 13 C7.4941255 11.21326795 5.9954515 9.42046492 4.5 7.625 C3.6646875 6.62726562 2.829375 5.62953125 1.96875 4.6015625 C0 2 0 2 0 0 Z " fill="#20193B" transform="translate(343,698)"/>
<path d="M0 0 C2.01136276 2.55991624 3.62845496 5.04590299 5 8 C3.35 8 1.7 8 0 8 C-0.66 6.02 -1.32 4.04 -2 2 C-1.34 2 -0.68 2 0 2 C0 1.34 0 0.68 0 0 Z " fill="#2C2336" transform="translate(210,676)"/>
<path d="M0 0 C2.22919924 3.34379886 2.35185595 4.12958459 2 8 C1.38431458 10.34730065 0.72640955 12.68456957 0 15 C-0.33 15 -0.66 15 -1 15 C-1.10251672 9.87416389 -1.03590199 5.05002222 0 0 Z " fill="#2F2734" transform="translate(853,555)"/>
<path d="M0 0 C0.33 0.66 0.66 1.32 1 2 C0.36971413 3.68076231 -0.29788106 5.34795544 -1 7 C-1 7.66 -1 8.32 -1 9 C-1.66 9 -2.32 9 -3 9 C-3.66 10.65 -4.32 12.3 -5 14 C-5.33 13.34 -5.66 12.68 -6 12 C-4.78515625 9.1796875 -4.78515625 9.1796875 -3.0625 5.875 C-2.49660156 4.77929688 -1.93070312 3.68359375 -1.34765625 2.5546875 C-0.90292969 1.71164062 -0.45820313 0.86859375 0 0 Z " fill="#171239" transform="translate(344,509)"/>
<path d="M0 0 C0.66 0.66 1.32 1.32 2 2 C1.67 2.99 1.34 3.98 1 5 C0.77674186 7.05893621 0.59294241 9.12233653 0.4375 11.1875 C0.35371094 12.27417969 0.26992188 13.36085938 0.18359375 14.48046875 C0.12300781 15.31191406 0.06242188 16.14335937 0 17 C-0.33 17 -0.66 17 -1 17 C-1.22126178 14.54220024 -1.42750395 12.08472352 -1.625 9.625 C-1.68945312 8.92632812 -1.75390625 8.22765625 -1.8203125 7.5078125 C-1.96119739 5.67630889 -1.98761659 3.83687252 -2 2 C-1.34 1.34 -0.68 0.68 0 0 Z " fill="#F7D81A" transform="translate(829,476)"/>
<path d="M0 0 C0 0.66 0 1.32 0 2 C-5.00932754 5.00559652 -8.32723489 5.29341888 -14 5 C-9.89892226 2.77858289 -4.73442329 0 0 0 Z " fill="#E9CD1A" transform="translate(621,808)"/>
<path d="M0 0 C0.66 0.33 1.32 0.66 2 1 C0.5741914 4.45195767 -1.09746334 6.1014256 -4.125 8.25 C-4.84945312 8.77078125 -5.57390625 9.2915625 -6.3203125 9.828125 C-6.87460937 10.21484375 -7.42890625 10.6015625 -8 11 C-6.63629701 8.00779732 -5.05091917 5.70973471 -2.875 3.25 C-2.33617187 2.63640625 -1.79734375 2.0228125 -1.2421875 1.390625 C-0.62730469 0.70226562 -0.62730469 0.70226562 0 0 Z " fill="#F5DC17" transform="translate(661,686)"/>
<path d="M0 0 C1 2 1 2 0.125 4.9375 C-0.24625 5.948125 -0.6175 6.95875 -1 8 C-1.33 8.99 -1.66 9.98 -2 11 C-2.99 11.33 -3.98 11.66 -5 12 C-4.42365861 7.24518354 -2.44931479 4.02951788 0 0 Z " fill="#F7D916" transform="translate(325,493)"/>
<path d="M0 0 C0 3.60573896 -0.81707462 4.41336566 -3 7.1875 C-3.556875 7.90292969 -4.11375 8.61835938 -4.6875 9.35546875 C-5.120625 9.89816406 -5.55375 10.44085938 -6 11 C-6 7.06845568 -4.74672985 4.4934597 -3 1 C-2.01 0.67 -1.02 0.34 0 0 Z " fill="#1B1638" transform="translate(685,385)"/>
<path d="M0 0 C0 3.66842255 -0.79029126 5.10451959 -3 8 C-5.6875 8.8125 -5.6875 8.8125 -8 9 C-7.04270084 7.87411986 -6.08412105 6.7493285 -5.125 5.625 C-4.59132813 4.99851562 -4.05765625 4.37203125 -3.5078125 3.7265625 C-2.38567993 2.44163349 -1.20628025 1.20628025 0 0 Z " fill="#181539" transform="translate(538,317)"/>
<path d="M0 0 C0.53625 0.226875 1.0725 0.45375 1.625 0.6875 C-1.3215385 2.48816242 -4.26301935 4.18913895 -7.375 5.6875 C-7.705 4.6975 -8.035 3.7075 -8.375 2.6875 C-2.95961538 -0.38942308 -2.95961538 -0.38942308 0 0 Z " fill="#211B39" transform="translate(393.375,222.3125)"/>
<path d="M0 0 C-3 2 -3 2 -7 2 C-7 2.66 -7 3.32 -7 4 C-9.31 4 -11.62 4 -14 4 C-13.67 3.34 -13.34 2.68 -13 2 C-8.55499776 0.66649933 -4.6681169 -0.29175731 0 0 Z " fill="#1F1A3A" transform="translate(443,207)"/>
<path d="M0 0 C0.33 0.99 0.66 1.98 1 3 C-1.64 4.98 -4.28 6.96 -7 9 C-7.66 8.67 -8.32 8.34 -9 8 C-6.03 5.36 -3.06 2.72 0 0 Z " fill="#1A143B" transform="translate(619,571)"/>
<path d="M0 0 C0.33 0 0.66 0 1 0 C1.22226864 1.76913824 1.42733873 3.54044371 1.625 5.3125 C1.74101563 6.29863281 1.85703125 7.28476562 1.9765625 8.30078125 C2 11 2 11 0 14 C-0.91297308 9.02936879 -0.91297308 4.97063121 0 0 Z " fill="#3A2D35" transform="translate(850,564)"/>
<path d="M0 0 C0.94875 0.04125 1.8975 0.0825 2.875 0.125 C3.205 1.115 3.535 2.105 3.875 3.125 C1.235 3.785 -1.405 4.445 -4.125 5.125 C-4.455 4.135 -4.785 3.145 -5.125 2.125 C-3.125 0.125 -3.125 0.125 0 0 Z " fill="#3B2F34" transform="translate(711.125,387.875)"/>
<path d="M0 0 C-0.33 1.32 -0.66 2.64 -1 4 C-1.66 4 -2.32 4 -3 4 C-3 3.34 -3 2.68 -3 2 C-4.98 2.33 -6.96 2.66 -9 3 C-6.01800145 0.01800145 -4.21244839 0 0 0 Z " fill="#FAD719" transform="translate(574,747)"/>
<path d="M0 0 C2.625 0.25 2.625 0.25 4.4375 1.75 C4.829375 2.245 5.22125 2.74 5.625 3.25 C2.25 3.375 2.25 3.375 -1.375 3.25 C-2.035 2.59 -2.695 1.93 -3.375 1.25 C-2.375 0.25 -2.375 0.25 0 0 Z " fill="#F6D219" transform="translate(444.375,843.75)"/>
<path d="M0 0 C0.33 0 0.66 0 1 0 C1.33 2.97 1.66 5.94 2 9 C1.34 9 0.68 9 0 9 C-0.33 9.66 -0.66 10.32 -1 11 C-1.0270043 9.54176788 -1.04639787 8.08339325 -1.0625 6.625 C-1.07410156 5.81289063 -1.08570313 5.00078125 -1.09765625 4.1640625 C-1 2 -1 2 0 0 Z " fill="#392D35" transform="translate(172,564)"/>
<path d="M0 0 C-0.33 0.99 -0.66 1.98 -1 3 C-3.31 3.33 -5.62 3.66 -8 4 C-4.5 0 -4.5 0 0 0 Z " fill="#F0CF19" transform="translate(706,346)"/>
<path d="M0 0 C0.66 0.33 1.32 0.66 2 1 C0.6875 3.9375 0.6875 3.9375 -1 7 C-1.99 7.33 -2.98 7.66 -4 8 C-2.87548273 5.0280615 -1.77706209 2.66559313 0 0 Z " fill="#F6D819" transform="translate(781,678)"/>
<path d="M0 0 C3.465 1.485 3.465 1.485 7 3 C7 3.66 7 4.32 7 5 C4.03 4.505 4.03 4.505 1 4 C0.67 2.68 0.34 1.36 0 0 Z " fill="#F2D118" transform="translate(476,659)"/>
<path d="M0 0 C0.99 0 1.98 0 3 0 C2.25 5.75 2.25 5.75 0 8 C-0.79953138 4.71303767 -1.09658936 3.28976808 0 0 Z " fill="#EEC31C" transform="translate(815,603)"/>
<path d="M0 0 C0.33 0.66 0.66 1.32 1 2 C1.99 2.33 2.98 2.66 4 3 C3.67 4.32 3.34 5.64 3 7 C2.34 7 1.68 7 1 7 C0.34 5.02 -0.32 3.04 -1 1 C-0.67 0.67 -0.34 0.34 0 0 Z " fill="#2C2535" transform="translate(787,304)"/>
</svg>
